<svg xmlns="http://www.w3.org/2000/svg" width="31" height="48" fill="none"><g fill="#fff" clip-path="url(#a)"><path d="M5.638 47.789a1.557 1.557 0 0 1-.745-2.071s.09-.192.257-.562a95.799 95.799 0 0 0 2.803-7.062c1.538-4.366 3.043-9.87 3.033-14.066 0-.448-.016-.88-.05-1.293-.272-3.509-2.285-7.915-4.522-11.645C4.185 7.35 1.772 4.244.826 3.07c-.27-.336-.414-.505-.414-.506A1.556 1.556 0 0 1 2.787.555c.028.034 2.6 3.079 5.288 7.303 2.679 4.242 5.522 9.6 5.96 14.622.04.507.06 1.024.06 1.548-.01 4.882-1.626 10.555-3.208 15.096-1.587 4.53-3.166 7.887-3.18 7.92a1.554 1.554 0 0 1-2.07.745ZM23.276 47.043c-.014-.032-1.594-3.389-3.181-7.92-1.583-4.54-3.198-10.213-3.209-15.095 0-.526.02-1.042.062-1.548.437-5.023 3.281-10.38 5.96-14.621 2.688-4.225 5.26-7.27 5.288-7.304a1.554 1.554 0 1 1 2.375 2.01s-.144.17-.415.506a74.978 74.978 0 0 0-4.626 6.46c-2.578 4.022-5.178 9.189-5.483 13.205-.034.414-.051.846-.051 1.292-.008 3.668 1.14 8.349 2.462 12.378a92.848 92.848 0 0 0 3.375 8.75c.166.371.256.562.257.562a1.557 1.557 0 0 1-1.406 2.22 1.556 1.556 0 0 1-1.409-.895ZM14.141 13.824 9.963 6.505a1.554 1.554 0 0 1 .3-1.919L14.44.752a1.55 1.55 0 0 1 2.1 0l4.179 3.834c.536.491.66 1.286.3 1.92l-4.18 7.318a1.56 1.56 0 0 1-1.349.783 1.562 1.562 0 0 1-1.35-.783ZM13.28 6.04l2.212 3.875 2.212-3.875-2.212-2.03-2.212 2.03Z"/></g><defs><clipPath id="a"><path fill="#fff" d="M0 0h31v48H0z"/></clipPath></defs></svg>